<?xml version="1.0" encoding="UTF-8"?><svg id="a" xmlns="http://www.w3.org/2000/svg" width="690" height="530" viewBox="0 0 690 530"><path d="M688.17,433.34l-.37,2.68c-7.73,2.74-15.65,4.34-23.75,4.84l-2.49-1.97c-8.59-14.78-15.55-27.63-20.91-38.59h-17.31v2.31l1.05,36.47h-24.27l1.23-34.31-1.23-80.76,44.11-.15c12.04,0,21.31,2.93,27.87,8.84,6.56,5.88,9.83,14.32,9.83,25.26,0,7.39-1.88,14.17-5.64,20.3-3.76,6.13-9.02,11.15-15.8,15.09,9.3,14.75,18.51,28.09,27.69,40.01ZM641.35,382.25c10.13-3.45,15.18-10.78,15.18-21.96,0-6.07-1.63-10.63-4.9-13.68-3.3-3.02-8.32-4.68-15.09-4.9l-12.17.71-.71,39.12,17.68.71Z" fill="#fff"/><polygon points="687.12 488.32 686.72 514.65 687.03 526.91 679.63 526.91 679.88 515.36 679.79 510.74 669.87 510.65 660.78 510.8 660.69 514.65 661 526.91 653.61 526.91 653.92 515.36 653.61 488.32 661.09 488.32 660.85 504.34 670.39 504.49 679.79 504.43 679.63 488.32 687.12 488.32" fill="#fff"/><path d="M635.9,490.32l-1.39,6.56-.68.22c-1.29-.95-2.77-1.72-4.44-2.31-1.66-.55-3.42-.83-5.21-.83-7.08,0-10.63,4.4-10.63,13.24,0,4.62.92,8.13,2.77,10.5,1.85,2.4,4.56,3.57,8.1,3.57,1.72,0,3.51-.28,5.3-.83s3.39-1.32,4.77-2.31l.77.37-.62,6.56c-3.45,1.6-6.99,2.37-10.63,2.37-5.91,0-10.41-1.69-13.55-5.08-3.14-3.39-4.68-8.19-4.68-14.48s1.63-11.33,4.96-14.81c3.3-3.45,8.01-5.21,14.14-5.21,4.19,0,7.85.83,11,2.46Z" fill="#fff"/><path d="M591.55,525.13l-.06.92c-2.68.77-5.02,1.23-7.02,1.39l-1.14-.68c-3.76-6.07-6.41-10.47-7.95-13.24l-6.78.06v1.08l.31,12.26h-7.39l.31-11.55-.31-27.04,14.63-.06c4.16,0,7.39.99,9.67,2.96s3.42,4.77,3.42,8.35c0,2.53-.68,4.8-2.03,6.87s-3.26,3.76-5.73,5.08c2.96,4.47,6.34,8.99,10.07,13.61ZM581.47,500.27c0-2.09-.62-3.67-1.85-4.65-1.23-1.02-3.11-1.57-5.64-1.66l-5.08.15-.22,13.55,6.68.22c4.07-1.17,6.1-3.7,6.1-7.61Z" fill="#fff"/><path d="M560.16,337.15c8.78,9.83,13.15,23.78,13.15,41.89,0,19.77-4.77,35.02-14.29,45.74-9.55,10.72-23.01,16.08-40.38,16.08-16.08,0-28.49-5.05-37.24-15.09-8.78-10.07-13.15-24.33-13.15-42.81,0-19.4,4.74-34.34,14.2-44.81,9.49-10.5,22.92-15.74,40.29-15.74,16.2,0,28.67,4.93,37.42,14.75ZM547.93,384.03c0-15.12-2.13-25.93-6.34-32.4-4.22-6.5-11.21-9.76-20.97-9.76s-16.45,2.99-20.73,8.93c-4.28,5.98-6.44,15.68-6.44,29.14,0,15.37,2.13,26.3,6.34,32.86,4.22,6.56,11.21,9.83,20.97,9.83s16.45-3.02,20.73-9.02,6.44-15.86,6.44-29.57Z" fill="#fff"/><path d="M540.73,488.32l-.22,19.65-.09,5.7c.06,4.37-1.32,7.76-4.16,10.16-2.8,2.4-6.81,3.6-12.01,3.6s-9.02-1.17-11.7-3.57c-2.65-2.37-3.94-5.79-3.85-10.19l.09-5.94-.25-19.4h7.48l-.4,24.18c-.03,5.85,2.93,8.78,8.93,8.78,2.99,0,5.24-.71,6.78-2.19,1.54-1.45,2.28-3.67,2.25-6.59l-.31-24.18h7.45Z" fill="#fff"/><polygon points="487.84 488.32 487.44 514.65 487.75 526.91 480.36 526.91 480.6 515.36 480.51 510.74 470.59 510.65 461.51 510.8 461.42 514.65 461.72 526.91 454.33 526.91 454.64 515.36 454.33 488.32 461.82 488.32 461.57 504.34 471.12 504.49 480.51 504.43 480.36 488.32 487.84 488.32" fill="#fff"/><path d="M453.81,67.35c0,9.15-1.91,17.83-5.33,25.69-1.54,3.57-3.39,6.96-5.51,10.16-.71-.74-1.45-1.45-2.19-2.16-.49-.49-1.02-.95-1.51-1.42-1.51-1.36-3.08-2.65-4.68-3.88,1.97-3.2,3.63-6.59,4.93-10.16,2.06-5.7,3.2-11.86,3.2-18.23,0-29.6-24.09-53.68-53.68-53.68-4.96,0-9.73.65-14.26,1.91-1.39.37-2.71.8-4,1.29-1.72.62-3.39,1.32-5.02,2.09-1.76.86-3.48,1.82-5.11,2.83-2.09,1.32-4.1,2.77-5.98,4.34-.74.62-1.48,1.26-2.19,1.94-2.8,2.59-5.3,5.48-7.45,8.59-.25.31-.46.65-.68.95-1.97,2.96-3.67,6.13-5.02,9.46-2.56,6.25-3.97,13.09-3.97,20.27v34.34h-60.83c-1.39-1.05-2.74-2.22-3.97-3.48-2.34-2.28-4.4-4.84-6.16-7.61h59.88v-23.25c0-6.59.99-12.97,2.83-18.97,1.2-4,2.8-7.82,4.77-11.46.43-.86.89-1.69,1.39-2.49,1.29-2.22,2.74-4.34,4.28-6.34,2.06-2.71,4.37-5.27,6.81-7.64.25-.18.43-.37.68-.59,1.6-1.51,3.33-2.93,5.08-4.28,1.02-.74,2.03-1.45,3.08-2.16,3.17-2.16,6.59-4,10.13-5.54,7.88-3.42,16.57-5.33,25.72-5.33,35.73,0,64.77,29.08,64.77,64.8Z" fill="#fff"/><path d="M448.48,129.69c3.42,7.88,5.33,16.57,5.33,25.72,0,35.73-29.04,64.77-64.77,64.77-9.15,0-17.83-1.91-25.72-5.33-3.54-1.54-6.93-3.39-10.13-5.51.71-.74,1.45-1.45,2.16-2.19.49-.49.95-1.02,1.42-1.54,1.36-1.51,2.65-3.05,3.88-4.68,3.14,2,6.56,3.67,10.13,4.96,5.7,2.06,11.83,3.2,18.26,3.2,29.6,0,53.68-24.09,53.68-53.68,0-4.96-.68-9.73-1.94-14.26-.37-1.36-.8-2.68-1.26-4-.62-1.69-1.32-3.39-2.13-5.02-.83-1.76-1.79-3.45-2.83-5.11-1.29-2.09-2.74-4.1-4.31-5.98-.62-.77-1.26-1.48-1.94-2.22-2.59-2.77-5.48-5.27-8.59-7.45l-.92-.65c-2.96-1.97-6.16-3.67-9.49-5.02-6.25-2.59-13.09-4-20.27-4-.65,0-1.26.03-1.88.06v-.06h-32.49v-60.77c1.08-1.42,2.25-2.77,3.48-4,2.31-2.34,4.87-4.4,7.61-6.16v59.84h23.28c6.59,0,12.97,1.02,18.97,2.83,4,1.23,7.82,2.83,11.46,4.77.86.46,1.69.92,2.49,1.42,2.22,1.29,4.34,2.74,6.34,4.28,2.71,2.06,5.24,4.34,7.61,6.81.18.25.4.43.62.65,1.51,1.63,2.93,3.36,4.25,5.11.77,1.02,1.48,2.03,2.19,3.08,2.13,3.17,3.97,6.56,5.51,10.13Z" fill="#fff"/><path d="M443,388.96c3.73,4.47,5.61,10.32,5.61,17.59,0,22.27-17.43,33.42-52.33,33.42-10.26,0-20.73-.31-31.45-.89l1.26-34.31-1.26-80.76,40.9-.15c11.8,0,20.97,2.46,27.5,7.39,6.56,4.96,9.83,12.07,9.83,21.34,0,6.22-1.51,11.61-4.53,16.26-3.05,4.65-7.36,8.16-12.97,10.53,7.85,1.91,13.68,5.11,17.43,9.58ZM423.96,405.28c0-8.44-5.48-13.68-16.45-15.71l-19.84.37-.15,12.66.52,19.31c4.16.46,8.29.71,12.32.71,7.52,0,13.31-1.48,17.43-4.47,4.1-2.99,6.16-7.27,6.16-12.87ZM414.94,367.25c2.19-2.74,3.3-6.56,3.3-11.43,0-5.24-1.54-8.96-4.65-11.18-3.08-2.19-8.5-3.3-16.23-3.3h-8.78l-.52,31.26,16.79.52c4.53-1.17,7.88-3.14,10.1-5.88Z" fill="#fff"/><path d="M436.62,490.32l-1.39,6.56-.68.22c-1.29-.95-2.77-1.72-4.44-2.31-1.66-.55-3.39-.83-5.21-.83-7.08,0-10.63,4.4-10.63,13.24,0,4.62.92,8.13,2.77,10.5,1.85,2.4,4.56,3.57,8.1,3.57,1.72,0,3.51-.28,5.3-.83,1.82-.55,3.39-1.32,4.77-2.31l.77.37-.62,6.56c-3.42,1.6-6.96,2.37-10.63,2.37-5.88,0-10.41-1.69-13.55-5.08-3.11-3.39-4.68-8.19-4.68-14.48s1.63-11.33,4.96-14.81c3.3-3.45,8.01-5.21,14.14-5.21,4.19,0,7.88.83,11,2.46Z" fill="#fff"/><path d="M387.13,153.52c.03.62.03,1.26.03,1.88,0,11.06-2.09,21.62-5.88,31.32,2.49.62,5.08.95,7.76.95,17.8,0,32.28-14.48,32.28-32.28,0-.62-.03-1.26-.06-1.88h-32.22c-.62,0-1.26,0-1.88-.03v.03h-.03ZM432.37,153.52c.03.62.03,1.26.03,1.88,0,23.93-19.43,43.37-43.37,43.37-4.37,0-8.59-.65-12.57-1.85-3.6-1.08-6.99-2.62-10.13-4.59,1.82-3.23,3.42-6.59,4.77-10.1,3.2-8.35,4.96-17.37,4.96-26.83,0-.62,0-1.26-.03-1.88,0-.34-.03-.65-.03-.99h.06v-10.1h10.1v-.06c.34,0,.65.03.99.03.62.03,1.26.03,1.88.03h41.4c.03.12.09.28.12.4,1.05,3.39,1.66,6.99,1.82,10.69Z" fill="#fff"/><path d="M432.4,67.35c0,4.37-.65,8.56-1.85,12.54-1.08,3.63-2.62,7.02-4.56,10.16-3.23-1.85-6.62-3.45-10.13-4.77-8.32-3.2-17.37-4.96-26.83-4.96-.62,0-1.26,0-1.88.03-.34,0-.65,0-.99.03v-.06h-10.1v-10.13h-.06c0-.34.03-.65.03-.99.03-.62.03-1.23.03-1.85V25.95c.15-.06.28-.09.4-.15,3.42-1.02,6.99-1.66,10.69-1.79.62-.03,1.26-.06,1.88-.06,23.93,0,43.37,19.47,43.37,43.4ZM420.36,75.11c.62-2.49.95-5.08.95-7.76,0-17.8-14.48-32.31-32.28-32.31-.65,0-1.26.03-1.88.09v32.22c0,.62,0,1.23-.03,1.85v.03h.03c.62-.03,1.26-.03,1.88-.03,11.06,0,21.62,2.09,31.32,5.91Z" fill="#fff"/><path d="M425.6,132.12h-59.84v23.28c0,6.59-.99,12.97-2.83,18.97-1.2,3.97-2.8,7.82-4.77,11.46-.43.83-.89,1.66-1.39,2.49-1.29,2.19-2.74,4.31-4.28,6.31-2.06,2.71-4.37,5.27-6.81,7.64-.25.18-.43.4-.65.62-1.63,1.48-3.36,2.93-5.11,4.25-1.02.77-2.03,1.48-3.08,2.19-3.2,2.13-6.59,3.97-10.13,5.51-7.88,3.42-16.57,5.33-25.72,5.33-35.73,0-64.8-29.04-64.8-64.77,0-9.15,1.91-17.83,5.33-25.72,1.57-3.57,3.42-6.96,5.54-10.13l2.16,2.16c.52.46,1.02.92,1.54,1.39,1.51,1.39,3.08,2.68,4.68,3.88-1.97,3.17-3.63,6.59-4.93,10.16-2.09,5.7-3.2,11.86-3.2,18.26,0,29.6,24.09,53.68,53.68,53.68,4.96,0,9.73-.68,14.26-1.94,1.39-.37,2.71-.8,4-1.26,1.72-.62,3.39-1.32,5.02-2.13,1.76-.83,3.45-1.79,5.11-2.83,2.09-1.29,4.1-2.74,5.98-4.31.74-.65,1.48-1.26,2.19-1.97,2.8-2.56,5.3-5.45,7.48-8.56.22-.31.43-.65.65-.95,1.97-2.96,3.67-6.13,5.02-9.46,2.56-6.25,3.97-13.09,3.97-20.27v-34.37h60.8c1.42,1.08,2.74,2.25,4,3.48,2.31,2.28,4.4,4.84,6.13,7.61Z" fill="#fff"/><polygon points="366.24 488.17 365.87 515.12 366.09 526.91 358.08 526.91 339.85 499.81 339.39 499.81 339.29 513.82 339.54 526.91 332.83 526.91 333.13 515.58 332.92 488.32 340.77 488.32 359.01 515.42 359.62 515.42 359.41 488.57 366.24 488.17" fill="#fff"/><path d="M338.56,433.34l-.34,2.68c-7.76,2.74-15.68,4.34-23.78,4.84l-2.49-1.97c-8.56-14.78-15.52-27.63-20.88-38.59h-17.34v2.31l1.08,36.47h-24.3l1.26-34.31-1.26-80.76,44.14-.15c12.01,0,21.31,2.93,27.84,8.84,6.56,5.88,9.83,14.32,9.83,25.26,0,7.39-1.85,14.17-5.61,20.3-3.76,6.13-9.02,11.15-15.83,15.09,9.3,14.75,18.54,28.09,27.69,40.01ZM291.77,382.25c10.1-3.45,15.18-10.78,15.18-21.96,0-6.07-1.63-10.63-4.93-13.68-3.26-3.02-8.29-4.68-15.09-4.9l-12.14.71-.71,39.12,17.68.71Z" fill="#fff"/><path d="M336.83,13.42c-.71.71-1.45,1.42-2.16,2.16-.49.52-.95,1.02-1.42,1.54-1.36,1.51-2.65,3.08-3.88,4.68-3.17-1.97-6.56-3.63-10.13-4.93-5.7-2.09-11.83-3.2-18.26-3.2-29.6,0-53.68,24.09-53.68,53.68,0,4.93.65,9.73,1.91,14.26.37,1.36.8,2.68,1.29,3.97.62,1.72,1.29,3.42,2.09,5.02.86,1.79,1.82,3.48,2.83,5.14,1.29,2.09,2.74,4.1,4.34,5.94.62.77,1.26,1.51,1.94,2.22,2.59,2.8,5.48,5.3,8.59,7.45.31.25.62.43.92.65,2.96,1.97,6.16,3.67,9.49,5.05,6.28,2.56,13.09,3.97,20.27,3.97h34.37v60.8c-1.08,1.42-2.25,2.74-3.48,4-2.28,2.31-4.84,4.4-7.61,6.13v-59.84h-23.28c-6.59,0-13-.99-18.97-2.83-4-1.23-7.82-2.8-11.46-4.77-.86-.43-1.69-.92-2.53-1.42-2.19-1.29-4.31-2.71-6.31-4.28-2.71-2.06-5.27-4.34-7.64-6.81-.18-.22-.37-.43-.59-.65-1.48-1.63-2.93-3.33-4.28-5.11-.74-.99-1.45-2-2.16-3.05-2.16-3.2-4-6.59-5.54-10.16-3.42-7.85-5.33-16.54-5.33-25.69,0-35.73,29.08-64.8,64.8-64.8,9.15,0,17.83,1.91,25.72,5.33,3.54,1.54,6.93,3.39,10.13,5.54Z" fill="#fff"/><path d="M323.68,30.39c-1.85,3.23-3.45,6.62-4.77,10.13-3.2,8.32-4.96,17.37-4.96,26.83,0,.62,0,1.23.03,1.85,0,.34.03.65.03.99.12,3.45.49,6.81,1.08,10.13h-11.24v.06c-.34-.03-.65-.03-.99-.03-.62-.03-1.26-.03-1.88-.03h-41.43c-.03-.15-.09-.28-.12-.43-1.02-3.39-1.66-6.99-1.79-10.69-.03-.62-.06-1.23-.06-1.85,0-23.93,19.47-43.4,43.4-43.4,4.37,0,8.59.65,12.57,1.85,3.6,1.11,6.99,2.65,10.13,4.59ZM308.74,35.99c-2.49-.62-5.08-.95-7.76-.95-17.8,0-32.28,14.51-32.28,32.31,0,.62,0,1.23.06,1.85h32.22c.62,0,1.26,0,1.88.03h.03v-.03c-.03-.62-.03-1.23-.03-1.85,0-11.06,2.09-21.62,5.88-31.35Z" fill="#fff"/><path d="M301.87,488.32l13.03,38.59h-7.48l-.99-4.77-1.39-4.25-8.62-.06-7.7.06-1.48,3.85-1.08,5.17h-7.3l14.38-38.59h8.62ZM303.1,512.13l-5.45-16.88h-.55l-6.22,16.88,6.07.06,6.16-.06Z" fill="#fff"/><path d="M302.89,153.52h-.03v-.03c-.62.03-1.26.03-1.88.03-11.06,0-21.62-2.09-31.35-5.88-.62,2.49-.92,5.08-.92,7.76,0,17.8,14.48,32.28,32.28,32.28.65,0,1.26-.03,1.88-.06v-32.22c0-.62,0-1.26.03-1.88ZM314.01,152.54c0,.34-.03.65-.03.99-.03.62-.03,1.26-.03,1.88v41.4c-.15.03-.28.06-.4.12-3.42,1.02-6.99,1.66-10.69,1.82-.62.03-1.26.03-1.88.03-23.93,0-43.4-19.43-43.4-43.37,0-4.37.65-8.59,1.85-12.57,1.11-3.6,2.65-6.99,4.59-10.13,3.23,1.82,6.62,3.42,10.13,4.77,8.32,3.2,17.37,4.96,26.83,4.96.62,0,1.26,0,1.88-.03.34,0,.65-.03.99-.03v.06h10.1v10.1h.06Z" fill="#fff"/><path d="M265.31,525.13l-.09.92c-2.65.77-4.99,1.23-6.99,1.39l-1.17-.68c-3.73-6.07-6.38-10.47-7.92-13.24l-6.78.06v1.08l.31,12.26h-7.39l.31-11.55-.31-27.04,14.63-.06c4.16,0,7.36.99,9.67,2.96,2.28,1.97,3.42,4.77,3.42,8.35,0,2.53-.68,4.8-2.03,6.87-1.39,2.06-3.3,3.76-5.76,5.08,2.99,4.47,6.34,8.99,10.1,13.61ZM255.21,500.27c0-2.09-.62-3.67-1.85-4.65-1.23-1.02-3.11-1.57-5.61-1.66l-5.08.15-.25,13.55,6.71.22c4.03-1.17,6.07-3.7,6.07-7.61Z" fill="#fff"/><path d="M189.58,324l35.2,115.07h-24.64l-2.86-15.03-3.05-10.72-22.51-.52-19.8.52-3.05,9.49-3.05,16.26h-23.93l38.96-115.07h28.74ZM189.05,394.57l-13.58-47.86h-1.6l-15.71,47.86,15.34.37,15.55-.37Z" fill="#fff"/><polygon points="216.8 488.32 217.26 488.94 216.71 494.57 206.95 494.17 199.25 494.26 199.09 504.27 206.48 504.34 213.17 504.12 213.57 504.74 213.11 510.43 205.87 510.19 199 510.28 198.94 514.65 199.09 520.97 206.24 521.06 216.65 520.75 217.17 521.28 216.56 526.91 191.85 526.91 192.16 515.36 191.85 488.32 216.8 488.32" fill="#fff"/><polygon points="169.89 488.32 169.52 514.65 169.83 526.91 162.44 526.91 162.66 515.36 162.59 510.74 152.65 510.65 143.56 510.8 143.5 514.65 143.81 526.91 136.41 526.91 136.72 515.36 136.41 488.32 143.87 488.32 143.65 504.34 153.2 504.49 162.59 504.43 162.44 488.32 169.89 488.32" fill="#fff"/><polygon points="118.3 488.32 118.7 488.94 118.24 494.88 110.76 494.33 107.52 494.33 107.37 514.65 107.62 526.91 100.22 526.91 100.53 515.36 100.38 494.33 97.21 494.33 89.6 494.88 89.04 494.26 89.6 488.32 118.3 488.32" fill="#fff"/><polygon points="98.32 324 97.05 402.6 97.76 439.07 73.64 439.07 74.72 404.76 74.54 391.36 48.63 391.18 25.23 391.55 25.07 402.6 25.97 439.07 1.85 439.07 3.08 404.76 1.85 324 26.3 324 25.6 371.53 50.24 371.9 74.35 371.53 73.64 324 98.32 324" fill="#fff"/><path d="M72.5,488.32l-.25,19.65-.06,5.7c.06,4.37-1.36,7.76-4.16,10.16-2.83,2.4-6.84,3.6-12.01,3.6s-9.06-1.17-11.7-3.57c-2.68-2.37-3.94-5.79-3.85-10.19l.06-5.94-.22-19.4h7.45l-.37,24.18c-.06,5.85,2.93,8.78,8.93,8.78,2.96,0,5.24-.71,6.78-2.19,1.54-1.45,2.28-3.67,2.22-6.59l-.31-24.18h7.48Z" fill="#fff"/><polygon points="24.36 520.75 24.83 521.37 24.3 526.91 2.9 526.91 3.2 515.36 2.9 488.32 10.44 488.32 10.04 514.65 10.13 520.75 24.36 520.75" fill="#fff"/></svg>