<?xml version="1.0" encoding="UTF-8"?><svg id="a" xmlns="http://www.w3.org/2000/svg" width="300" height="300" viewBox="0 0 300 300"><path d="M283.92,161.17c-.93-1.43-1.93-2.82-2.97-4.18-1.82-2.43-3.77-4.77-5.83-6.98-.28-.3-.56-.59-.82-.89-3.23-3.38-6.7-6.48-10.4-9.32-2.75-2.12-5.66-4.07-8.67-5.85-1.11-.67-2.25-1.3-3.4-1.93-4.96-2.64-10.21-4.85-15.69-6.52-8.19-2.51-16.91-3.88-25.92-3.88h-31.82V39.79c-3.77,2.41-7.26,5.22-10.4,8.41-1.69,1.71-3.29,3.56-4.77,5.48v83.1h44.43v.04c.85-.02,1.69-.04,2.56-.04,9.8,0,19.16,1.93,27.7,5.44,4.57,1.86,8.93,4.18,12.98,6.89.41.28.85.56,1.26.89,4.27,2.97,8.21,6.39,11.75,10.19.91.98,1.8,1.97,2.64,3.01,2.17,2.58,4.14,5.31,5.92,8.17,1.43,2.25,2.71,4.6,3.88,7,1.08,2.23,2.04,4.53,2.88,6.87.65,1.78,1.24,3.6,1.73,5.44,1.73,6.22,2.64,12.74,2.64,19.51,0,40.47-32.92,73.39-73.39,73.39-8.78,0-17.19-1.54-24.97-4.38-4.9-1.78-9.54-4.05-13.87-6.76-1.67,2.21-3.42,4.34-5.29,6.37-.63.72-1.28,1.43-1.95,2.13-.95,1.02-1.95,1.99-2.95,2.97,4.38,2.93,9.02,5.46,13.87,7.57,10.79,4.68,22.67,7.28,35.16,7.28,48.83,0,88.56-39.73,88.56-88.56,0-12.49-2.6-24.38-7.28-35.16-2.1-4.88-4.64-9.51-7.56-13.87Z" fill="#c8aa64"/><path d="M207.65,107.57c.85-.04,1.71-.04,2.56-.04,12.92,0,25.3,2.41,36.7,6.78,4.79,1.84,9.41,4.03,13.83,6.52,2.64-4.29,4.77-8.93,6.24-13.87,1.65-5.42,2.54-11.18,2.54-17.14,0-32.71-26.6-59.33-59.3-59.33-.85,0-1.71.02-2.56.06-5.05.2-9.95,1.06-14.61,2.47-.2.07-.37.11-.56.17v56.62c0,.85,0,1.69-.04,2.54,0,.46-.02.89-.04,1.34h.09v13.83h13.83s0,.06,0,.09c.43-.02.89-.04,1.34-.04ZM207.6,92.35c.04-.85.04-1.69.04-2.54v-44.07c.85-.06,1.69-.09,2.56-.09,24.34,0,44.13,19.81,44.13,44.15,0,3.66-.46,7.2-1.3,10.6-13.29-5.2-27.72-8.06-42.83-8.06-.85,0-1.71,0-2.56.04t-.04,0s.02-.02,0-.04Z" fill="#c8aa64"/><path d="M179.16,260.71c4.29,2.67,8.95,4.77,13.87,6.26,5.44,1.65,11.21,2.54,17.17,2.54,32.71,0,59.3-26.6,59.3-59.3,0-.85-.02-1.71-.07-2.56-.2-5.05-1.06-9.97-2.47-14.61-.04-.2-.11-.39-.17-.56h-56.59c-.85,0-1.71,0-2.56-.04-.46,0-.91-.02-1.34-.04v.09h-13.83v13.83h-.09c.02.43.04.89.04,1.34.04.85.04,1.71.04,2.56,0,12.92-2.41,25.27-6.78,36.67-1.84,4.79-4.03,9.41-6.52,13.83ZM207.65,210.2c0-.85,0-1.71-.04-2.56t0-.04s.02.02.04,0c.85.04,1.71.04,2.56.04h44.04c.07.85.09,1.71.09,2.56,0,24.34-19.79,44.13-44.13,44.13-3.66,0-7.22-.46-10.62-1.3,5.2-13.29,8.06-27.72,8.06-42.83Z" fill="#c8aa64"/><path d="M167.98,251.8c2.67-4.96,4.86-10.21,6.52-15.67,2.54-8.19,3.88-16.91,3.88-25.92v-31.82h81.82c-2.38-3.79-5.22-7.28-8.41-10.4-1.71-1.71-3.53-3.29-5.46-4.77h-83.12v46.99c0,9.8-1.93,19.16-5.44,27.7-1.86,4.55-4.16,8.89-6.87,12.94-.28.43-.59.87-.89,1.3-2.97,4.27-6.39,8.21-10.21,11.73-.98.93-1.97,1.8-2.99,2.67-2.58,2.15-5.31,4.14-8.17,5.92-2.25,1.41-4.6,2.71-7,3.88-2.23,1.06-4.51,2.04-6.85,2.88-1.78.65-3.6,1.24-5.46,1.73-6.2,1.73-12.75,2.64-19.51,2.64-40.47,0-73.41-32.92-73.41-73.39,0-8.76,1.54-17.17,4.38-24.97,1.78-4.88,4.05-9.54,6.76-13.87-2.21-1.67-4.34-3.45-6.39-5.31-.72-.63-1.41-1.28-2.1-1.93-1-.95-1.99-1.95-2.97-2.95-2.9,4.36-5.44,8.99-7.56,13.87-4.68,10.77-7.28,22.67-7.28,35.16,0,48.83,39.75,88.56,88.59,88.56,12.48,0,24.36-2.6,35.16-7.28,4.86-2.1,9.49-4.64,13.87-7.57,1.43-.95,2.82-1.93,4.18-2.97,2.43-1.82,4.77-3.77,6.98-5.83.3-.28.59-.56.89-.82,3.36-3.23,6.48-6.72,9.32-10.43,2.12-2.75,4.07-5.66,5.85-8.67.67-1.1,1.3-2.25,1.91-3.4Z" fill="#c8aa64"/><path d="M132.04,48.2c-2.67,4.96-4.86,10.21-6.52,15.69-2.54,8.19-3.88,16.91-3.88,25.92v31.8H39.77c2.41,3.77,5.22,7.28,8.43,10.4,1.71,1.71,3.53,3.32,5.46,4.77h83.15v-46.97c0-9.8,1.93-19.16,5.44-27.7,1.86-4.55,4.16-8.89,6.87-12.94.28-.43.59-.87.89-1.3,2.97-4.27,6.39-8.21,10.21-11.75.98-.93,1.97-1.8,2.99-2.67,2.56-2.15,5.29-4.12,8.15-5.92,2.25-1.41,4.62-2.71,7.02-3.88,2.23-1.06,4.51-2.04,6.85-2.88,1.78-.65,3.6-1.24,5.46-1.73,6.2-1.73,12.75-2.64,19.51-2.64,40.47,0,73.39,32.95,73.39,73.41,0,8.73-1.54,17.14-4.36,24.93-1.78,4.9-4.05,9.54-6.76,13.89,2.21,1.67,4.34,3.45,6.39,5.31.69.63,1.39,1.26,2.08,1.93,1.02.97,2.02,1.95,2.97,2.97,2.93-4.38,5.46-9.02,7.56-13.89,4.68-10.77,7.28-22.65,7.28-35.14,0-48.86-39.73-88.59-88.56-88.59-12.48,0-24.36,2.6-35.16,7.28-4.86,2.1-9.52,4.64-13.87,7.57-1.43.95-2.82,1.93-4.18,2.97-2.43,1.82-4.77,3.77-6.98,5.83-.3.28-.59.56-.89.82-3.36,3.23-6.48,6.72-9.32,10.43-2.12,2.75-4.07,5.66-5.85,8.67-.67,1.1-1.3,2.25-1.91,3.4Z" fill="#c8aa64"/><path d="M120.86,39.29c-4.29-2.67-8.95-4.77-13.87-6.26-5.44-1.65-11.21-2.54-17.17-2.54-32.71,0-59.32,26.62-59.32,59.33,0,.85.02,1.69.07,2.54.2,5.05,1.06,9.97,2.47,14.61.04.2.11.39.15.56h56.64c.85,0,1.71,0,2.56.04.46,0,.91.02,1.34.04,0-.02-.02-.06,0-.09h15.37c-.8-4.51-1.3-9.13-1.45-13.83-.02-.46-.04-.89-.04-1.34-.04-.85-.04-1.69-.04-2.54,0-12.92,2.41-25.29,6.78-36.7,1.82-4.79,4.01-9.41,6.52-13.83ZM92.38,89.82c0,.85,0,1.69.04,2.54t0,.04s-.02-.02-.04,0c-.85-.04-1.71-.04-2.56-.04h-44.07c-.06-.85-.09-1.69-.09-2.54,0-24.34,19.81-44.15,44.15-44.15,3.66,0,7.22.46,10.62,1.3-5.2,13.29-8.06,27.74-8.06,42.85Z" fill="#c8aa64"/><path d="M92.38,192.43c-.85.04-1.71.04-2.56.04-12.92,0-25.29-2.41-36.7-6.78-4.79-1.84-9.41-4.03-13.83-6.52-2.67,4.29-4.77,8.93-6.26,13.87-1.65,5.42-2.54,11.18-2.54,17.17,0,32.71,26.62,59.3,59.32,59.3.85,0,1.71-.02,2.56-.06,5.05-.2,9.95-1.06,14.61-2.47.2-.07.37-.11.56-.17v-56.59c0-.85,0-1.71.04-2.56,0-.46.02-.91.04-1.34h-.09v-13.83h-13.83v-.09c-.43.02-.89.04-1.34.04ZM92.42,207.65c-.04.85-.04,1.71-.04,2.56v44.04c-.85.07-1.69.09-2.56.09-24.34,0-44.15-19.79-44.15-44.13,0-3.66.46-7.22,1.3-10.62,13.29,5.2,27.74,8.06,42.85,8.06.85,0,1.71,0,2.56-.04t.04,0s-.02.02,0,.04Z" fill="#c8aa64"/><path d="M16.08,138.85c.95,1.43,1.95,2.82,2.97,4.16,1.82,2.45,3.79,4.77,5.85,7,.28.28.54.59.8.87,3.23,3.36,6.7,6.48,10.43,9.32,2.75,2.12,5.64,4.08,8.65,5.85,1.13.67,2.28,1.32,3.45,1.93,4.94,2.67,10.19,4.85,15.65,6.52,8.19,2.51,16.93,3.88,25.95,3.88h31.82v81.82c3.79-2.38,7.28-5.22,10.4-8.41,1.71-1.71,3.29-3.53,4.77-5.46v-83.12h-46.99c-9.8,0-19.14-1.93-27.7-5.44-4.57-1.86-8.93-4.18-12.98-6.89-.43-.28-.85-.56-1.26-.87-4.27-2.97-8.21-6.39-11.75-10.21-.93-.98-1.82-1.97-2.67-3.01-2.17-2.56-4.14-5.29-5.92-8.15-1.41-2.25-2.71-4.59-3.88-7.02-1.08-2.21-2.04-4.51-2.88-6.85-.65-1.78-1.24-3.6-1.73-5.44-1.73-6.22-2.64-12.77-2.64-19.51,0-40.47,32.95-73.41,73.41-73.41,8.78,0,17.19,1.54,24.97,4.38,4.88,1.78,9.52,4.05,13.85,6.76,1.67-2.21,3.45-4.34,5.31-6.39.63-.72,1.28-1.41,1.93-2.1.98-1.02,1.97-2.02,2.97-2.97-4.38-2.93-9.02-5.46-13.87-7.57-10.79-4.68-22.67-7.28-35.16-7.28C40.98,1.23,1.23,40.96,1.23,89.82c0,12.48,2.6,24.36,7.28,35.14,2.1,4.88,4.64,9.52,7.56,13.89Z" fill="#c8aa64"/></svg>